<?xml version="1.0" encoding="UTF-8" standalone="no"?>
<!DOCTYPE svg PUBLIC "-//W3C//DTD SVG 1.1//EN"
 "http://www.w3.org/Graphics/SVG/1.1/DTD/svg11.dtd">
<!-- Generated by graphviz version 12.2.1 (0)
 -->
<!-- Title: PlainOraclePublishing Pages: 1 -->
<svg width="991pt" height="380pt"
 viewBox="0.00 0.00 991.30 380.39" xmlns="http://www.w3.org/2000/svg" xmlns:xlink="http://www.w3.org/1999/xlink">
<g id="graph0" class="graph" transform="scale(1 1) rotate(0) translate(36 344.39)">
<title>PlainOraclePublishing</title>
<polygon fill="white" stroke="none" points="-36,36 -36,-344.39 955.3,-344.39 955.3,36 -36,36"/>
<!-- Tx -->
<g id="node1" class="node">
<title>Tx</title>
<path fill="#f9f9f9" stroke="#aaaaaa" d="M183.1,-122.17C183.1,-122.17 132.6,-122.17 132.6,-122.17 126.6,-122.17 120.6,-116.17 120.6,-110.17 120.6,-110.17 120.6,-98.17 120.6,-98.17 120.6,-92.17 126.6,-86.17 132.6,-86.17 132.6,-86.17 183.1,-86.17 183.1,-86.17 189.1,-86.17 195.1,-92.17 195.1,-98.17 195.1,-98.17 195.1,-110.17 195.1,-110.17 195.1,-116.17 189.1,-122.17 183.1,-122.17"/>
<text text-anchor="start" x="128.6" y="-105.57" font-family="Courier New" font-weight="bold" font-size="8.00">Tx publishing</text>
<text text-anchor="start" x="135.35" y="-97.57" font-family="Courier New" font-weight="bold" font-size="8.00">data point</text>
</g>
<!-- DataPointOutput -->
<g id="node3" class="node">
<title>DataPointOutput</title>
<polygon fill="#f9f9f9" stroke="none" points="466.1,-184.8 343.6,-184.8 343.6,-127.55 466.1,-127.55 466.1,-184.8"/>
<polygon fill="none" stroke="#aaaaaa" points="343.6,-165.05 343.6,-184.8 466.1,-184.8 466.1,-165.05 343.6,-165.05"/>
<text text-anchor="start" x="371.1" y="-173.2" font-family="Courier New" font-weight="bold" font-size="8.00">TxOut with data</text>
<polygon fill="none" stroke="#aaaaaa" points="343.6,-127.55 343.6,-165.05 376.1,-165.05 376.1,-127.55 343.6,-127.55"/>
<text text-anchor="start" x="348.6" y="-144.57" font-family="Courier New" font-weight="bold" font-size="8.00">datum</text>
<polygon fill="none" stroke="#aaaaaa" points="376.1,-127.55 376.1,-165.05 466.1,-165.05 466.1,-127.55 376.1,-127.55"/>
<text text-anchor="start" x="385.1" y="-148.45" font-family="Courier New" font-size="8.00">data point</text>
<text text-anchor="start" x="385.1" y="-138.7" font-family="Courier New" font-size="8.00">signed by oracle</text>
</g>
<!-- Tx&#45;&gt;DataPointOutput -->
<g id="edge2" class="edge">
<title>Tx:e&#45;&gt;DataPointOutput:w</title>
<path fill="none" stroke="#aaaaaa" d="M195.1,-104.17C265.03,-104.17 273.67,-156.17 343.6,-156.17"/>
<text text-anchor="start" x="231.1" y="-151.88" font-family="Courier New" font-size="8.00">Data point output</text>
</g>
<!-- change -->
<g id="node4" class="node">
<title>change</title>
<ellipse fill="#f9f9f9" stroke="black" cx="404.85" cy="-68.17" rx="1.8" ry="1.8"/>
</g>
<!-- Tx&#45;&gt;change -->
<g id="edge3" class="edge">
<title>Tx:e&#45;&gt;change:w</title>
<path fill="none" stroke="#aaaaaa" d="M195.1,-104.17C217.65,-104.17 210.26,-77.03 231.1,-68.42 301.13,-39.5 325.81,-68.17 401.57,-68.17"/>
<text text-anchor="start" x="249.1" y="-71.57" font-family="Courier New" font-style="italic" font-size="8.00">Tx change</text>
</g>
<!-- FundingOutput -->
<g id="node2" class="node">
<title>FundingOutput</title>
<ellipse fill="#f9f9f9" stroke="black" cx="1.8" cy="-104.17" rx="1.8" ry="1.8"/>
</g>
<!-- FundingOutput&#45;&gt;Tx -->
<g id="edge1" class="edge">
<title>FundingOutput:e&#45;&gt;Tx:w</title>
<path fill="none" stroke="#aaaaaa" d="M3.6,-104.17C55.6,-104.17 68.6,-104.17 120.6,-104.17"/>
<text text-anchor="start" x="39.6" y="-107.32" font-family="Courier New" font-style="italic" font-size="8.00">Tx funding</text>
</g>
<!-- DataPointOutputPoint -->
<g id="node5" class="node">
<title>DataPointOutputPoint</title>
<ellipse fill="#f9f9f9" stroke="black" cx="540.9" cy="-156.17" rx="1.8" ry="1.8"/>
</g>
<!-- DataPointOutput&#45;&gt;DataPointOutputPoint -->
<g id="edge4" class="edge">
<title>DataPointOutput:e&#45;&gt;DataPointOutputPoint:w</title>
<path fill="none" stroke="#aaaaaa" d="M466.1,-156.17C498.54,-156.17 506.66,-156.17 539.1,-156.17"/>
</g>
<!-- SpendingValidatorTx -->
<g id="node7" class="node">
<title>SpendingValidatorTx</title>
<polygon fill="#f9f9f9" stroke="none" points="842.7,-275.8 709.2,-275.8 709.2,-194.55 842.7,-194.55 842.7,-275.8"/>
<text text-anchor="start" x="748.95" y="-264.2" font-family="Courier New" font-weight="bold" font-size="8.00">Tx consuming</text>
<text text-anchor="start" x="753.45" y="-256.2" font-family="Courier New" font-weight="bold" font-size="8.00">data point</text>
<polygon fill="none" stroke="#aaaaaa" points="710.2,-217.3 710.2,-250.8 760.2,-250.8 760.2,-217.3 710.2,-217.3"/>
<text text-anchor="start" x="717.2" y="-232.32" font-family="Courier New" font-weight="bold" font-size="8.00">redeemer</text>
<polygon fill="none" stroke="#aaaaaa" points="760.2,-217.3 760.2,-250.8 841.7,-250.8 841.7,-217.3 760.2,-217.3"/>
<text text-anchor="start" x="767.2" y="-236.2" font-family="Courier New" font-size="8.00">oracle data at</text>
<text text-anchor="start" x="767.2" y="-226.45" font-family="Courier New" font-size="8.00">reference input</text>
<text text-anchor="start" x="732.95" y="-203.7" font-family="Courier New" font-size="8.00"> </text>
<path fill="none" stroke="#aaaaaa" d="M721.2,-194.55C721.2,-194.55 830.7,-194.55 830.7,-194.55 836.7,-194.55 842.7,-200.55 842.7,-206.55 842.7,-206.55 842.7,-263.8 842.7,-263.8 842.7,-269.8 836.7,-275.8 830.7,-275.8 830.7,-275.8 721.2,-275.8 721.2,-275.8 715.2,-275.8 709.2,-269.8 709.2,-263.8 709.2,-263.8 709.2,-206.55 709.2,-206.55 709.2,-200.55 715.2,-194.55 721.2,-194.55"/>
</g>
<!-- DataPointOutputPoint&#45;&gt;SpendingValidatorTx -->
<g id="edge7" class="edge">
<title>DataPointOutputPoint:e&#45;&gt;SpendingValidatorTx:w</title>
<path fill="none" stroke="#aaaaaa" stroke-dasharray="5,2" d="M542.7,-156.17C604.89,-156.17 619.21,-175.8 673.2,-206.67 690.92,-216.8 688.79,-235.17 709.2,-235.17"/>
<text text-anchor="start" x="605.7" y="-218.57" font-family="Courier New" font-size="8.00" fill="#888888">reference</text>
<text text-anchor="start" x="614.7" y="-208.82" font-family="Courier New" font-size="8.00" fill="#888888">input</text>
</g>
<!-- AnotherSpendingValidatorTx -->
<g id="node10" class="node">
<title>AnotherSpendingValidatorTx</title>
<polygon fill="#f9f9f9" stroke="none" points="842.7,-117.8 709.2,-117.8 709.2,-36.55 842.7,-36.55 842.7,-117.8"/>
<text text-anchor="start" x="748.95" y="-106.2" font-family="Courier New" font-weight="bold" font-size="8.00">Tx consuming</text>
<text text-anchor="start" x="753.45" y="-98.2" font-family="Courier New" font-weight="bold" font-size="8.00">data point</text>
<polygon fill="none" stroke="#aaaaaa" points="710.2,-59.3 710.2,-92.8 760.2,-92.8 760.2,-59.3 710.2,-59.3"/>
<text text-anchor="start" x="717.2" y="-74.32" font-family="Courier New" font-weight="bold" font-size="8.00">redeemer</text>
<polygon fill="none" stroke="#aaaaaa" points="760.2,-59.3 760.2,-92.8 841.7,-92.8 841.7,-59.3 760.2,-59.3"/>
<text text-anchor="start" x="767.2" y="-78.2" font-family="Courier New" font-size="8.00">oracle data at</text>
<text text-anchor="start" x="767.2" y="-68.45" font-family="Courier New" font-size="8.00">reference input</text>
<text text-anchor="start" x="732.95" y="-45.7" font-family="Courier New" font-size="8.00"> </text>
<path fill="none" stroke="#aaaaaa" d="M721.2,-36.55C721.2,-36.55 830.7,-36.55 830.7,-36.55 836.7,-36.55 842.7,-42.55 842.7,-48.55 842.7,-48.55 842.7,-105.8 842.7,-105.8 842.7,-111.8 836.7,-117.8 830.7,-117.8 830.7,-117.8 721.2,-117.8 721.2,-117.8 715.2,-117.8 709.2,-111.8 709.2,-105.8 709.2,-105.8 709.2,-48.55 709.2,-48.55 709.2,-42.55 715.2,-36.55 721.2,-36.55"/>
</g>
<!-- DataPointOutputPoint&#45;&gt;AnotherSpendingValidatorTx -->
<g id="edge10" class="edge">
<title>DataPointOutputPoint:e&#45;&gt;AnotherSpendingValidatorTx:w</title>
<path fill="none" stroke="#aaaaaa" stroke-dasharray="5,2" d="M542.7,-156.17C563.67,-156.17 560.6,-136.26 578.7,-125.67 632.11,-94.43 647.32,-77.17 709.2,-77.17"/>
<text text-anchor="start" x="605.7" y="-137.57" font-family="Courier New" font-size="8.00" fill="#888888">reference</text>
<text text-anchor="start" x="614.7" y="-127.82" font-family="Courier New" font-size="8.00" fill="#888888">input</text>
</g>
<!-- SpendingValidatorInitialThreadPoint -->
<g id="node6" class="node">
<title>SpendingValidatorInitialThreadPoint</title>
<ellipse fill="#f9f9f9" stroke="black" cx="540.9" cy="-281.17" rx="1.8" ry="1.8"/>
</g>
<!-- SpendingValidatorInitialThreadPoint&#45;&gt;SpendingValidatorTx -->
<g id="edge5" class="edge">
<title>SpendingValidatorInitialThreadPoint:e&#45;&gt;SpendingValidatorTx:w</title>
<path fill="none" stroke="#aaaaaa" d="M542.7,-281.17C619.47,-281.17 632.43,-235.17 709.2,-235.17"/>
<text text-anchor="start" x="612.45" y="-301.79" font-family="Courier New" font-style="italic" font-size="8.00">Tx out</text>
<text text-anchor="start" x="578.7" y="-293.79" font-family="Courier New" font-style="italic" font-size="8.00">at spending validator</text>
<text text-anchor="start" x="594.45" y="-285.79" font-family="Courier New" font-style="italic" font-size="8.00">which requires</text>
<text text-anchor="start" x="596.7" y="-277.79" font-family="Courier New" font-style="italic" font-size="8.00">oracle choice</text>
</g>
<!-- SpendingValidatorThreadPoint -->
<g id="node8" class="node">
<title>SpendingValidatorThreadPoint</title>
<ellipse fill="#f9f9f9" stroke="black" cx="917.5" cy="-235.17" rx="1.8" ry="1.8"/>
</g>
<!-- SpendingValidatorTx&#45;&gt;SpendingValidatorThreadPoint -->
<g id="edge6" class="edge">
<title>SpendingValidatorTx:e&#45;&gt;SpendingValidatorThreadPoint:w</title>
<path fill="none" stroke="#aaaaaa" d="M842.7,-235.17C875.14,-235.17 883.26,-235.17 915.7,-235.17"/>
</g>
<!-- AnotherSpendingValidatorInitialThreadPoint -->
<g id="node9" class="node">
<title>AnotherSpendingValidatorInitialThreadPoint</title>
<ellipse fill="#f9f9f9" stroke="black" cx="540.9" cy="-20.17" rx="1.8" ry="1.8"/>
</g>
<!-- AnotherSpendingValidatorInitialThreadPoint&#45;&gt;AnotherSpendingValidatorTx -->
<g id="edge8" class="edge">
<title>AnotherSpendingValidatorInitialThreadPoint:e&#45;&gt;AnotherSpendingValidatorTx:w</title>
<path fill="none" stroke="#aaaaaa" d="M542.7,-20.17C559.19,-20.17 562.33,-13.19 578.7,-11.17 620.39,-6.04 637.08,10.27 673.2,-11.17 701.93,-28.23 675.79,-77.17 709.2,-77.17"/>
<text text-anchor="start" x="612.45" y="-36.57" font-family="Courier New" font-style="italic" font-size="8.00">Tx out</text>
<text text-anchor="start" x="578.7" y="-28.57" font-family="Courier New" font-style="italic" font-size="8.00">at spending validator</text>
<text text-anchor="start" x="594.45" y="-20.57" font-family="Courier New" font-style="italic" font-size="8.00">which requires</text>
<text text-anchor="start" x="596.7" y="-12.57" font-family="Courier New" font-style="italic" font-size="8.00">oracle choice</text>
</g>
<!-- AnotherSpendingValidatorThreadPoint -->
<g id="node11" class="node">
<title>AnotherSpendingValidatorThreadPoint</title>
<ellipse fill="#f9f9f9" stroke="black" cx="917.5" cy="-77.17" rx="1.8" ry="1.8"/>
</g>
<!-- AnotherSpendingValidatorTx&#45;&gt;AnotherSpendingValidatorThreadPoint -->
<g id="edge9" class="edge">
<title>AnotherSpendingValidatorTx:e&#45;&gt;AnotherSpendingValidatorThreadPoint:w</title>
<path fill="none" stroke="#aaaaaa" d="M842.7,-77.17C875.14,-77.17 883.26,-77.17 915.7,-77.17"/>
</g>
</g>
</svg>
